<svg xmlns="http://www.w3.org/2000/svg" width="44.761" height="44.761" viewBox="0 0 44.761 44.761">
  <g id="coding" transform="translate(0.15 0.149)">
    <g id="Group_66" data-name="Group 66" transform="translate(33.867 32.485)">
      <g id="Group_65" data-name="Group 65">
        <path id="Path_28" data-name="Path 28" d="M391.482,374.334a.868.868,0,1,0,.254.614A.875.875,0,0,0,391.482,374.334Z" transform="translate(-390 -374.08)" fill="#353740" stroke="#353740" stroke-width="0.3"/>
      </g>
    </g>
    <g id="Group_68" data-name="Group 68" transform="translate(0 0.001)">
      <g id="Group_67" data-name="Group 67">
        <path id="Path_29" data-name="Path 29" d="M40.987,0H3.473A3.477,3.477,0,0,0,0,3.474V30.749a3.477,3.477,0,0,0,3.473,3.473H17.107v4.359a5.043,5.043,0,0,0-4.544,5.012.868.868,0,0,0,.868.868h17.6a.868.868,0,0,0,.868-.868,5.042,5.042,0,0,0-4.718-5.025V34.222h4.052a.868.868,0,1,0,0-1.737H3.473a1.739,1.739,0,0,1-1.737-1.737V3.474A1.739,1.739,0,0,1,3.473,1.738H40.987a1.739,1.739,0,0,1,1.737,1.737V30.749a1.739,1.739,0,0,1-1.737,1.737H37.745a.868.868,0,0,0,0,1.737h3.242a3.477,3.477,0,0,0,3.473-3.473V3.474A3.477,3.477,0,0,0,40.987,0ZM18.844,34.222h6.6v4.335h-6.6Zm8.018,6.071a3.306,3.306,0,0,1,3.184,2.431H14.415A3.306,3.306,0,0,1,17.6,40.293Z" transform="translate(0 -0.001)" fill="#353740" stroke="#353740" stroke-width="0.3"/>
      </g>
    </g>
    <g id="Group_70" data-name="Group 70" transform="translate(21.275 29.706)">
      <g id="Group_69" data-name="Group 69">
        <path id="Path_30" data-name="Path 30" d="M246.482,342.335a.868.868,0,1,0,.254.614A.875.875,0,0,0,246.482,342.335Z" transform="translate(-245 -342.081)" fill="#353740" stroke="#353740" stroke-width="0.3"/>
      </g>
    </g>
    <g id="Group_72" data-name="Group 72" transform="translate(10.599 10.182)">
      <g id="Group_71" data-name="Group 71">
        <path id="Path_31" data-name="Path 31" d="M124.152,122.985l4.255-4.255a.868.868,0,1,0-1.228-1.228l-4.869,4.869a.869.869,0,0,0,0,1.228l4.869,4.869a.868.868,0,1,0,1.228-1.228Z" transform="translate(-122.055 -117.248)" fill="#353740" stroke="#353740" stroke-width="0.3"/>
      </g>
    </g>
    <g id="Group_74" data-name="Group 74" transform="translate(27.256 10.182)">
      <g id="Group_73" data-name="Group 73">
        <path id="Path_32" data-name="Path 32" d="M320.228,122.371,315.36,117.5a.868.868,0,0,0-1.228,1.228l4.255,4.255-4.255,4.255a.868.868,0,0,0,1.228,1.228l4.869-4.869A.868.868,0,0,0,320.228,122.371Z" transform="translate(-313.877 -117.248)" fill="#353740" stroke="#353740" stroke-width="0.3"/>
      </g>
    </g>
    <g id="Group_76" data-name="Group 76" transform="translate(20.062 10.524)">
      <g id="Group_75" data-name="Group 75">
        <path id="Path_33" data-name="Path 33" d="M234.721,121.216a.868.868,0,0,0-1.064.614l-2.6,9.7a.868.868,0,1,0,1.678.45l2.6-9.7A.868.868,0,0,0,234.721,121.216Z" transform="translate(-231.028 -121.186)" fill="#353740" stroke="#353740" stroke-width="0.3"/>
      </g>
    </g>
    <g id="Group_78" data-name="Group 78" transform="translate(3.473 3.482)">
      <g id="Group_77" data-name="Group 77">
        <path id="Path_34" data-name="Path 34" d="M76.645,40.084H62.838a.868.868,0,1,0,0,1.737H75.777V63.53H41.737V41.821h13.33a.868.868,0,0,0,0-1.737h-14.2a.868.868,0,0,0-.868.868V64.4a.868.868,0,0,0,.868.868H76.645a.868.868,0,0,0,.868-.868V40.952A.868.868,0,0,0,76.645,40.084Z" transform="translate(-40 -40.084)" fill="#353740" stroke="#353740" stroke-width="0.3"/>
      </g>
    </g>
    <g id="Group_80" data-name="Group 80" transform="translate(21.536 3.481)">
      <g id="Group_79" data-name="Group 79">
        <path id="Path_35" data-name="Path 35" d="M249.482,40.335a.869.869,0,1,0,.254.614A.875.875,0,0,0,249.482,40.335Z" transform="translate(-248 -40.081)" fill="#353740" stroke="#353740" stroke-width="0.3"/>
      </g>
    </g>
  </g>
</svg>
