<svg xmlns="http://www.w3.org/2000/svg" width="44.006" height="44.075" viewBox="0 0 44.006 44.075">
  <g id="email" transform="translate(-3.896 0.365)">
    <g id="Group_64" data-name="Group 64" transform="translate(4.196 0.004)">
      <g id="Group_63" data-name="Group 63" transform="translate(0 0)">
        <path id="Path_26" data-name="Path 26" d="M43.4,16.6a.684.684,0,0,0-.03-.147.724.724,0,0,0-.041-.124.649.649,0,0,0-.072-.111.682.682,0,0,0-.1-.112c-.012-.01-.017-.024-.029-.034l-6.958-5.4v-5.6A2.17,2.17,0,0,0,34,2.9h-7.84L23.023.458a2.145,2.145,0,0,0-2.639,0L17.244,2.9H9.4a2.17,2.17,0,0,0-2.17,2.17v5.6L.278,16.07c-.012.01-.017.024-.029.034a.679.679,0,0,0-.1.112.646.646,0,0,0-.072.111.714.714,0,0,0-.041.124.686.686,0,0,0-.03.145c0,.015-.009.028-.009.043v24.6a2.146,2.146,0,0,0,.425,1.277c0,.007.005.014.01.02s.016.012.023.02a2.16,2.16,0,0,0,1.71.853H41.237a2.16,2.16,0,0,0,1.716-.857c.006-.007.014-.009.02-.017s.006-.014.01-.02a2.146,2.146,0,0,0,.425-1.277v-24.6C43.407,16.626,43.4,16.613,43.4,16.6Zm-22.13-15a.694.694,0,0,1,.863,0L23.8,2.9H19.6ZM2.351,41.963,21.269,27.269a.7.7,0,0,1,.863,0L41.054,41.963ZM41.96,40.835,23.023,26.127a2.147,2.147,0,0,0-2.639,0L1.446,40.835V17.743L13.3,26.95a.724.724,0,0,0,.887-1.144L2.144,16.453,7.234,12.5v5.59a.723.723,0,1,0,1.447,0V5.066A.723.723,0,0,1,9.4,4.342H34a.723.723,0,0,1,.723.723V18.088a.723.723,0,1,0,1.447,0V12.5l5.09,3.955L29.2,25.822a.723.723,0,1,0,.887,1.143L41.96,17.743V40.835Z" transform="translate(-0.001 -0.004)" fill="#353740" stroke="#353740" stroke-width="0.6"/>
        <path id="Path_27" data-name="Path 27" d="M170.937,79.813V76.919a8.682,8.682,0,1,0-8.682,8.682.723.723,0,1,0,0-1.447,7.235,7.235,0,1,1,7.235-7.235v2.894a1.447,1.447,0,1,1-2.894,0V76.919a.723.723,0,0,0-1.447,0,2.894,2.894,0,1,1-2.894-2.894.723.723,0,0,0,0-1.447,4.341,4.341,0,1,0,2.925,7.539,2.886,2.886,0,0,0,5.757-.3Z" transform="translate(-140.554 -62.452)" fill="#353740" stroke="#353740" stroke-width="0.6"/>
      </g>
    </g>
  </g>
</svg>
