<svg xmlns="http://www.w3.org/2000/svg" width="47.824" height="43.633" viewBox="0 0 47.824 43.633">
  <path id="heart" d="M23.912,43.633a2.764,2.764,0,0,1-1.849-.712c-1.932-1.732-3.795-3.36-5.438-4.8l-.008-.007C11.8,33.906,7.638,30.27,4.743,26.688,1.507,22.683,0,18.887,0,14.739A15.557,15.557,0,0,1,3.794,4.27,12.714,12.714,0,0,1,13.36,0a11.84,11.84,0,0,1,7.514,2.66,15.6,15.6,0,0,1,3.038,3.253A15.6,15.6,0,0,1,26.95,2.66,11.84,11.84,0,0,1,34.465,0a12.715,12.715,0,0,1,9.566,4.27,15.556,15.556,0,0,1,3.794,10.469c0,4.148-1.507,7.944-4.743,11.948-2.895,3.582-7.055,7.218-11.873,11.428-1.646,1.438-3.512,3.069-5.448,4.805A2.766,2.766,0,0,1,23.912,43.633ZM13.36,2.873A9.975,9.975,0,0,0,5.853,6.217,12.657,12.657,0,0,0,2.8,14.739c0,3.488,1.264,6.608,4.1,10.116,2.74,3.39,6.815,6.952,11.534,11.075l.009.007c1.65,1.442,3.52,3.076,5.466,4.821,1.958-1.749,3.831-3.385,5.484-4.829,4.718-4.124,8.793-7.684,11.533-11.075,2.834-3.507,4.1-6.627,4.1-10.116a12.657,12.657,0,0,0-3.052-8.522,9.974,9.974,0,0,0-7.506-3.344,9.145,9.145,0,0,0-5.8,2.059,13.853,13.853,0,0,0-3.233,3.836,1.746,1.746,0,0,1-3.038,0A13.841,13.841,0,0,0,19.16,4.932,9.145,9.145,0,0,0,13.36,2.873Zm0,0" fill="#353740"/>
</svg>
